<?xml version="1.0" standalone="no"?>
<!DOCTYPE svg PUBLIC "-//W3C//DTD SVG 20010904//EN"
 "http://www.w3.org/TR/2001/REC-SVG-20010904/DTD/svg10.dtd">
<svg version="1.0" xmlns="http://www.w3.org/2000/svg"
 width="16.000000pt" height="16.000000pt" viewBox="0 0 16.000000 16.000000"
 preserveAspectRatio="xMidYMid meet">
<metadata>
Created by potrace 1.11, written by Peter Selinger 2001-2013
</metadata>
<g transform="translate(0.000000,16.000000) scale(0.004000,-0.004000)"
fill="#000000" stroke="none">
<path d="M1318 3963 c-67 -3 -88 -7 -88 -18 0 -8 -20 -18 -55 -25 -36 -7 -55
-16 -55 -26 0 -8 -10 -14 -25 -14 -18 0 -25 -5 -25 -19 0 -15 -10 -21 -40 -26
-30 -5 -40 -11 -40 -26 0 -12 -7 -19 -19 -19 -10 0 -21 -9 -24 -20 -3 -11 -12
-20 -21 -20 -9 0 -16 -8 -16 -20 0 -13 -7 -20 -20 -20 -13 0 -20 -7 -20 -20 0
-13 7 -20 20 -20 13 0 20 7 20 20 0 14 7 20 21 20 12 0 23 8 26 20 4 15 14 20
39 20 27 0 34 4 34 19 0 15 10 21 40 26 23 4 40 12 40 20 0 7 18 15 45 19 29
5 45 12 45 22 0 10 12 14 40 14 54 0 54 -25 1 -34 -27 -4 -40 -12 -44 -26 -3
-12 -14 -20 -26 -20 -12 0 -21 -6 -21 -15 0 -10 -14 -17 -40 -21 -30 -5 -40
-11 -40 -25 0 -15 -8 -19 -40 -19 -33 0 -40 -3 -40 -20 0 -14 -7 -20 -21 -20
-12 0 -23 -8 -26 -20 -4 -15 -14 -20 -39 -20 -27 0 -34 -4 -34 -20 0 -15 -7
-20 -25 -20 -18 0 -25 -5 -25 -19 0 -13 -10 -21 -34 -25 -22 -4 -36 -13 -39
-26 -3 -12 -14 -20 -26 -20 -12 0 -21 -6 -21 -14 0 -9 -15 -17 -40 -21 -30 -5
-40 -11 -40 -26 0 -12 -7 -19 -20 -19 -11 0 -20 -6 -20 -14 0 -10 -16 -17 -45
-22 -28 -4 -45 -11 -45 -20 0 -7 -16 -16 -36 -20 -24 -4 -38 -13 -41 -25 -3
-11 -14 -19 -24 -19 -12 0 -19 -7 -19 -19 0 -14 -10 -20 -39 -25 -27 -4 -40
-12 -44 -26 -3 -11 -12 -20 -20 -20 -9 0 -17 -14 -21 -35 -4 -21 -13 -35 -21
-35 -9 0 -15 -10 -15 -25 0 -31 29 -34 37 -5 3 11 14 20 24 20 15 0 19 -7 19
-40 0 -33 -3 -40 -20 -40 -13 0 -20 -7 -20 -20 0 -13 -7 -20 -19 -20 -19 0
-31 -34 -31 -91 0 -21 5 -28 22 -31 30 -4 37 -38 9 -45 -16 -4 -21 -13 -21
-39 0 -22 -6 -37 -19 -43 -14 -8 -21 -27 -26 -71 -4 -38 -12 -60 -20 -60 -14
0 -25 -71 -25 -167 0 -41 -4 -65 -13 -70 -17 -10 -29 -91 -21 -132 4 -18 14
-31 26 -35 20 -5 21 -10 16 -127 -5 -112 -4 -122 13 -126 12 -3 21 -18 25 -40
4 -19 13 -37 20 -40 17 -6 18 -30 2 -35 -16 -6 -16 -110 0 -116 7 -2 12 -23
12 -49 0 -35 4 -46 19 -50 19 -5 31 -60 31 -149 0 -33 4 -43 20 -47 16 -4 20
-14 20 -46 0 -29 4 -41 14 -41 10 0 17 -16 21 -48 13 -99 16 -112 30 -112 10
0 15 -11 15 -34 0 -53 11 -96 26 -96 8 0 14 -15 16 -37 2 -27 8 -39 21 -41 12
-2 17 3 17 17 0 14 6 21 19 21 16 0 21 -9 27 -45 4 -28 11 -45 20 -45 7 0 16
-15 19 -34 5 -22 14 -36 26 -39 14 -4 19 -14 19 -41 0 -29 4 -36 20 -36 14 0
20 -7 20 -21 0 -12 8 -23 19 -26 11 -3 21 -13 24 -24 3 -10 12 -19 20 -19 8 0
17 -8 20 -19 3 -11 17 -21 40 -25 23 -4 37 -13 40 -26 3 -11 12 -20 21 -20 31
0 16 -28 -18 -34 -22 -4 -36 -13 -39 -26 -3 -11 -12 -20 -20 -20 -8 0 -17 -9
-20 -20 -3 -11 -12 -20 -20 -20 -8 0 -17 -9 -20 -20 -3 -12 -14 -20 -25 -20
-15 0 -21 -9 -26 -35 -4 -21 -13 -35 -21 -35 -9 0 -15 -10 -15 -25 0 -18 -5
-25 -19 -25 -15 0 -21 -10 -26 -39 -4 -27 -13 -41 -26 -44 -14 -4 -19 -14 -19
-40 0 -26 -5 -36 -20 -40 -16 -4 -20 -14 -20 -46 0 -28 -4 -41 -14 -41 -14 0
-26 -29 -26 -62 0 -17 22 -18 330 -18 323 0 330 0 330 20 0 13 7 20 20 20 13
0 20 7 20 20 0 18 7 20 85 20 l85 0 0 -40 0 -40 105 0 c98 0 105 1 105 20 0
16 7 20 36 20 27 0 37 5 41 20 5 18 14 20 103 20 89 0 98 -2 103 -20 4 -15 14
-20 41 -20 29 0 36 -4 36 -20 0 -20 7 -20 435 -20 l435 0 0 85 c0 66 -3 85
-14 85 -18 0 -26 31 -26 103 l0 57 60 0 c45 0 61 4 68 17 7 11 27 18 66 21 46
4 56 8 56 23 0 15 8 19 40 19 33 0 40 3 40 20 0 14 7 20 21 20 12 0 23 8 26
20 3 13 17 22 39 26 24 4 34 12 34 25 0 12 7 19 20 19 13 0 20 7 20 20 0 13 7
20 20 20 14 0 21 9 25 34 5 22 14 36 26 39 13 3 19 14 19 31 0 16 6 26 15 26
8 0 17 14 21 35 3 19 14 39 23 44 14 8 16 37 19 208 4 220 -2 283 -24 283 -11
0 -14 15 -14 61 0 52 -3 62 -20 66 -17 5 -20 14 -20 60 0 46 -3 56 -20 60 -17
5 -20 14 -20 60 0 46 -3 56 -20 60 -18 5 -20 14 -20 83 0 69 2 78 20 83 12 3
20 14 20 26 0 14 6 21 20 21 13 0 20 7 20 20 0 11 6 20 14 20 16 0 26 43 26
111 0 36 4 49 14 49 10 0 17 16 22 46 9 62 0 197 -15 202 -15 5 -14 79 1 84 9
3 14 40 16 122 5 138 -3 206 -24 206 -11 0 -14 16 -14 74 0 92 -8 136 -26 136
-30 0 -13 29 21 36 32 6 35 9 35 39 0 20 -6 35 -15 39 -10 3 -15 19 -15 47 0
32 -4 42 -20 46 -15 4 -20 14 -20 39 0 28 -4 34 -21 34 -12 0 -23 8 -26 20 -3
13 -17 22 -39 26 -24 4 -34 12 -34 24 0 12 -9 20 -22 22 -19 2 -24 10 -26 41
-2 23 -8 37 -17 37 -8 0 -16 17 -20 41 -5 29 -13 43 -26 46 -15 4 -19 14 -19
44 0 39 0 39 40 39 33 0 40 3 40 20 0 13 -7 20 -19 20 -10 0 -21 9 -24 20 -4
15 -14 20 -41 20 -29 0 -36 4 -36 20 0 19 -7 20 -125 20 -118 0 -125 1 -125
20 0 13 -7 20 -20 20 -17 0 -20 7 -20 45 0 38 -3 45 -20 45 -13 0 -20 7 -20
20 0 13 -7 20 -20 20 -13 0 -20 7 -20 20 0 15 -7 20 -25 20 -15 0 -25 6 -25
14 0 16 -30 26 -82 26 -31 0 -38 -4 -38 -20 0 -15 -7 -20 -27 -20 -55 0 -103
-13 -103 -26 0 -8 -7 -14 -15 -14 -8 0 -15 6 -15 14 0 19 -54 26 -221 26 -138
0 -147 1 -152 20 -4 15 -14 20 -40 20 -26 0 -36 5 -40 20 -5 19 -14 20 -150
20 -79 0 -171 2 -203 4 -32 1 -98 1 -146 -1z m1201 -89 c21 -5 31 -12 31 -25
0 -12 7 -19 20 -19 16 0 20 -7 20 -35 0 -24 -5 -35 -15 -35 -8 0 -15 9 -15 20
0 13 -7 20 -20 20 -13 0 -20 7 -20 20 0 17 -7 20 -45 20 -31 0 -45 4 -45 13 0
28 25 33 89 21z m-2189 -724 c0 -13 -7 -20 -20 -20 -13 0 -20 7 -20 20 0 13 7
20 20 20 13 0 20 -7 20 -20z m2254 -1642 c3 -7 7 -43 10 -80 l5 -68 -57 0
c-74 0 -99 8 -105 31 -3 11 -14 19 -26 19 -17 0 -21 6 -21 35 0 34 1 35 41 35
32 0 42 4 46 20 4 17 14 20 54 20 31 0 51 -5 53 -12z m-282 -50 c1 -13 2 -36
3 -53 4 -84 5 -85 25 -85 13 0 20 -7 20 -19 0 -15 10 -21 40 -26 38 -6 40 -9
40 -41 0 -27 4 -34 19 -34 14 0 20 -10 25 -40 4 -26 11 -40 21 -40 9 0 15 -9
15 -21 0 -12 8 -23 19 -26 11 -3 21 -13 24 -24 4 -15 14 -19 46 -19 l41 0 0
-57 c0 -72 -8 -103 -26 -103 -8 0 -14 -10 -14 -25 0 -18 -5 -25 -20 -25 -13 0
-20 -7 -20 -20 0 -13 -7 -20 -20 -20 -24 0 -26 -25 -5 -46 8 -9 15 -11 15 -5
0 6 20 11 45 11 37 0 45 -3 45 -19 0 -37 118 -37 127 1 7 26 30 22 37 -7 4
-14 13 -25 21 -25 8 0 12 -6 9 -15 -4 -9 3 -16 20 -21 14 -3 26 -12 26 -20 0
-8 10 -14 25 -14 18 0 25 5 25 20 0 13 -7 20 -20 20 -17 0 -20 7 -20 40 0 33
3 40 20 40 13 0 20 -7 20 -19 0 -10 9 -21 20 -24 15 -4 20 -14 20 -42 0 -28
-5 -38 -20 -42 -11 -3 -20 -12 -20 -19 0 -8 -10 -14 -25 -14 -18 0 -25 -5 -25
-20 0 -18 -7 -20 -56 -20 -47 0 -57 -3 -61 -20 -4 -16 -14 -20 -44 -20 l-39 0
0 60 c0 53 -2 60 -20 60 -13 0 -20 7 -20 20 0 13 -7 20 -20 20 -13 0 -20 7
-20 19 0 13 -10 20 -31 25 -51 10 -59 8 -59 -19 0 -19 5 -25 23 -25 13 0 29
-6 36 -13 11 -10 12 -9 6 2 -5 9 -4 12 3 7 7 -4 12 -13 12 -21 0 -7 10 -15 23
-17 19 -3 22 -10 25 -60 3 -53 1 -58 -18 -58 -12 0 -20 7 -20 16 0 9 -9 18
-20 21 -11 3 -20 14 -20 24 0 12 -7 19 -20 19 -14 0 -20 7 -20 21 0 12 -8 23
-20 26 -11 3 -20 14 -20 24 0 12 -7 19 -20 19 -11 0 -20 7 -20 15 0 10 -10 15
-34 15 -54 0 -96 11 -96 26 0 10 -17 15 -62 16 -176 6 -178 6 -178 23 0 9 -9
15 -21 15 -12 0 -23 8 -26 19 -3 13 -17 22 -44 26 -42 7 -53 29 -19 38 11 3
20 12 20 21 0 9 7 16 15 16 9 0 20 11 25 25 5 14 16 25 24 25 14 0 26 41 26
91 0 27 3 29 40 29 33 0 40 -3 40 -20 0 -17 7 -20 41 -20 l42 0 -6 106 c-3 58
-3 142 0 185 5 66 9 79 23 79 13 0 19 11 24 40 7 43 25 54 28 18z m378 -240
c0 -22 -17 -41 -29 -34 -19 12 -13 46 9 46 11 0 20 -6 20 -12z m450 -368 c0
-11 -7 -20 -15 -20 -8 0 -15 9 -15 20 0 11 7 20 15 20 8 0 15 -9 15 -20z
m-410 -41 c0 -12 -7 -19 -20 -19 -21 0 -28 24 -10 35 6 4 7 12 3 18 -4 7 0 6
10 -2 9 -7 17 -22 17 -32z m364 -71 c-3 -16 -12 -28 -20 -28 -15 0 -13 37 3
95 5 17 7 16 15 -10 4 -16 5 -42 2 -57z m-44 -53 c0 -8 -7 -15 -15 -15 -8 0
-15 7 -15 15 0 8 7 15 15 15 8 0 15 -7 15 -15z"/>
<path d="M2760 601 c0 -16 6 -21 26 -21 33 0 30 33 -4 38 -17 3 -22 -2 -22
-17z"/>
<path d="M2230 3940 c0 -6 33 -10 80 -10 47 0 80 4 80 10 0 6 -33 10 -80 10
-47 0 -80 -4 -80 -10z"/>
<path d="M830 3650 c0 -11 7 -20 15 -20 8 0 15 9 15 20 0 11 -7 20 -15 20 -8
0 -15 -9 -15 -20z"/>
<path d="M3100 3525 c0 -8 7 -15 15 -15 8 0 15 7 15 15 0 8 -7 15 -15 15 -8 0
-15 -7 -15 -15z"/>
<path d="M170 3075 c0 -8 7 -15 15 -15 8 0 15 7 15 15 0 8 -7 15 -15 15 -8 0
-15 -7 -15 -15z"/>
</g>
</svg>
